<svg xmlns="http://www.w3.org/2000/svg" viewBox="0 0 27.98 25.31"><defs><style>.cls-1{fill:none;stroke:#fff;stroke-linecap:round;stroke-miterlimit:10;stroke-width:2px;}</style></defs><g id="图层_2" data-name="图层 2"><g id="图层_4" data-name="图层 4"><path class="cls-1" d="M1,6.47a.29.29,0,0,1,0-.14L5,1.05a.15.15,0,0,1,.06,0H22.85a.07.07,0,0,1,0,0l4,5.22a.3.3,0,0,1,.05.2.35.35,0,0,1-.06.19L14.16,24.24a.17.17,0,0,1-.13.07.19.19,0,0,1-.15-.06L1.05,6.63A.33.33,0,0,1,1,6.47Z"/><line class="cls-1" x1="1.37" y1="6.49" x2="26.54" y2="6.49"/><path class="cls-1" d="M10.55,1.06l-2.7,5.3q3,8.73,6,17.47"/><path class="cls-1" d="M17.53,1.22q1.27,2.57,2.54,5.13-2.91,8.7-5.84,17.41"/></g></g></svg>