<svg width="29" height="37" viewBox="0 0 29 37" fill="none" xmlns="http://www.w3.org/2000/svg">
<path d="M28.1038 37C27.9757 37 27.7837 36.9339 27.6556 36.8679L14.532 29.8643L1.40839 36.8679C1.0883 37 0.768212 37 0.448124 36.8018C0.192053 36.6036 -3.75103e-08 36.2732 0 35.9429V3.56786C0 1.58571 1.53642 0 3.45695 0H25.543C27.4636 0 29 1.58571 29 3.56786V36.0089C29 36.3393 28.8079 36.6696 28.5519 36.8679C28.4238 36.9339 28.2958 37 28.1038 37ZM14.532 27.75C14.66 27.75 14.8521 27.8161 14.9801 27.8821L27.1435 34.3571V3.56786C27.1435 2.70893 26.4393 1.98214 25.6071 1.98214H3.45695C2.62472 1.98214 1.92053 2.70893 1.92053 3.56786V34.3571L14.0839 27.8821C14.2119 27.8161 14.404 27.75 14.532 27.75Z" fill="white"/>
<path d="M18.1729 21.9871C17.9106 21.9871 17.6482 21.9233 17.3859 21.7955L14.5656 20.3266L11.6797 21.7955C11.155 22.1149 10.4335 22.051 9.97442 21.6678C9.44972 21.2846 9.18736 20.7098 9.31854 20.135L9.84324 17.0693L7.48207 14.8339C7.02296 14.3868 6.89178 13.812 7.08854 13.2372C7.28531 12.6624 7.81001 12.2792 8.40031 12.1514L11.6141 11.7044L13.0571 8.89415C13.3194 8.31934 13.9097 8 14.5 8C15.0903 8 15.6806 8.31934 15.9429 8.89415L17.3859 11.7044L20.5997 12.1514C21.19 12.2153 21.7147 12.6624 21.9115 13.2372C22.1082 13.812 21.977 14.4507 21.5179 14.8339L19.1568 17.0693L19.6815 20.135C19.8126 20.7098 19.5503 21.3485 19.0256 21.6678C18.8288 21.8594 18.5009 21.9871 18.1729 21.9871ZM14.5656 18.3466C14.8279 18.3466 15.0903 18.4105 15.3526 18.5383L17.7794 19.8156L17.3203 17.2609C17.2547 16.7499 17.3859 16.239 17.7794 15.8558L19.747 13.9397L17.0579 13.5565C16.5332 13.4927 16.0741 13.1733 15.8118 12.6624L14.5656 10.2354L13.385 12.6624C13.1226 13.1095 12.6635 13.4288 12.1388 13.5565L9.38413 13.9397L11.3518 15.8558C11.7453 16.239 11.9421 16.7499 11.8109 17.2609L11.3518 19.8156L13.7785 18.5383C14.0409 18.4105 14.3032 18.3466 14.5656 18.3466Z" fill="white"/>
</svg>
