<svg width="69" height="65" viewBox="0 0 69 65" fill="none" xmlns="http://www.w3.org/2000/svg">
<g clip-path="url(#clip0_347_181)">
<path d="M67.16 64.5302H50.29C50.1004 64.5372 49.9113 64.505 49.7346 64.4356C49.558 64.3662 49.3975 64.2611 49.2633 64.1269C49.1291 63.9927 49.024 63.8323 48.9546 63.6556C48.8852 63.4789 48.853 63.2898 48.86 63.1002C48.8678 62.7243 49.0212 62.3661 49.288 62.1011C49.5548 61.8362 49.9141 61.6853 50.29 61.6802H65.61V48.1802C65.6174 47.811 65.7653 47.4585 66.0236 47.1946C66.2819 46.9308 66.6311 46.7754 67 46.7602C67.1892 46.7517 67.3781 46.7826 67.5547 46.8509C67.7314 46.9191 67.892 47.0232 68.0263 47.1567C68.1607 47.2901 68.266 47.45 68.3354 47.6261C68.4049 47.8023 68.4371 47.9909 68.43 48.1802V63.1002C68.4601 63.281 68.4492 63.4663 68.3984 63.6425C68.3476 63.8186 68.258 63.9812 68.1363 64.1182C68.0146 64.2553 67.8637 64.3634 67.6948 64.4347C67.5259 64.506 67.3432 64.5386 67.16 64.5302ZM67.1 18.8302C66.9109 18.8386 66.722 18.8077 66.5453 18.7395C66.3687 18.6712 66.2081 18.5671 66.0738 18.4337C65.9394 18.3002 65.8341 18.1404 65.7646 17.9642C65.6952 17.7881 65.6629 17.5994 65.67 17.4102V3.32017H50.23C50.0412 3.3271 49.853 3.29518 49.6771 3.22641C49.5011 3.15763 49.3411 3.05345 49.2071 2.92032C49.073 2.7872 48.9677 2.62796 48.8977 2.45248C48.8277 2.277 48.7944 2.08902 48.8 1.90017C48.8052 1.52252 48.9575 1.16179 49.2246 0.894728C49.4917 0.627665 49.8524 0.475343 50.23 0.470169H67C67.1881 0.465956 67.375 0.500217 67.5493 0.57085C67.7236 0.641482 67.8816 0.746996 68.0136 0.880911C68.1457 1.01483 68.2489 1.17432 68.3171 1.34959C68.3853 1.52487 68.4169 1.71223 68.41 1.90017V17.4102C68.4393 17.5938 68.4266 17.7817 68.3728 17.9597C68.319 18.1377 68.2255 18.3012 68.0994 18.4379C67.9734 18.5746 67.8179 18.6809 67.6448 18.7488C67.4717 18.8168 67.2854 18.8446 67.1 18.8302ZM17.23 3.32017H3.45004V17.4102C3.44219 17.7895 3.28597 18.1507 3.01489 18.4161C2.7438 18.6816 2.37947 18.8303 2.00004 18.8302C1.81251 18.8358 1.62582 18.8028 1.45155 18.7333C1.27729 18.6638 1.11915 18.5592 0.986956 18.4261C0.854759 18.293 0.751317 18.1341 0.683042 17.9593C0.614766 17.7846 0.583113 17.5977 0.590044 17.4102V1.90017C0.597504 1.52668 0.747847 1.17025 1.01013 0.904243C1.27242 0.638236 1.62669 0.482888 2.00004 0.470169H17.35C17.5393 0.46307 17.7279 0.49528 17.9041 0.564765C18.0803 0.63425 18.2401 0.739502 18.3735 0.873875C18.507 1.00825 18.6111 1.16883 18.6793 1.34547C18.7476 1.52211 18.7785 1.71099 18.77 1.90017C18.7636 2.095 18.7185 2.28662 18.6374 2.46386C18.5562 2.6411 18.4406 2.80043 18.2973 2.93257C18.154 3.06472 17.9858 3.16704 17.8026 3.23358C17.6194 3.30012 17.4248 3.32956 17.23 3.32017ZM1.90004 46.6402C2.08923 46.6317 2.2781 46.6626 2.45474 46.7309C2.63139 46.7991 2.79197 46.9032 2.92634 47.0367C3.06071 47.1701 3.16596 47.33 3.23545 47.5061C3.30493 47.6823 3.33714 47.8709 3.33004 48.0602V61.5602H17.23C17.4202 61.553 17.6097 61.5854 17.7866 61.6555C17.9634 61.7256 18.1238 61.8318 18.2574 61.9672C18.391 62.1027 18.4949 62.2645 18.5625 62.4424C18.6301 62.6202 18.6599 62.8102 18.65 63.0002C18.6449 63.3752 18.4936 63.7334 18.2284 63.9985C17.9632 64.2637 17.605 64.415 17.23 64.4202H1.90004C1.71168 64.4272 1.5239 64.3952 1.34845 64.3264C1.173 64.2575 1.01364 64.1531 0.88036 64.0199C0.747077 63.8866 0.642732 63.7272 0.573851 63.5518C0.504969 63.3763 0.473035 63.1885 0.480044 63.0002V48.1802C0.470656 47.9855 0.50009 47.7908 0.566632 47.6076C0.633173 47.4244 0.735494 47.2562 0.86764 47.1129C0.999785 46.9696 1.15911 46.854 1.33636 46.7728C1.5136 46.6917 1.70521 46.6466 1.90004 46.6402ZM67.16 65.0002H50.29C50.0402 65.0015 49.7925 64.9533 49.5614 64.8582C49.3303 64.7632 49.1203 64.6233 48.9436 64.4466C48.7669 64.2699 48.627 64.0599 48.532 63.8288C48.437 63.5977 48.3887 63.35 48.39 63.1002C48.3887 62.8507 48.437 62.6036 48.5321 62.373C48.6273 62.1424 48.7673 61.9331 48.9442 61.7572C49.121 61.5813 49.3311 61.4423 49.5621 61.3484C49.7932 61.2545 50.0406 61.2075 50.29 61.2102H65.14V48.2102C65.14 47.7063 65.3402 47.223 65.6965 46.8667C66.0529 46.5103 66.5361 46.3102 67.04 46.3102C67.544 46.3102 68.0272 46.5103 68.3835 46.8667C68.7399 47.223 68.94 47.7063 68.94 48.2102V63.1002C68.9678 63.3462 68.9419 63.5953 68.864 63.8303C68.786 64.0652 68.658 64.2805 68.4888 64.4612C68.3195 64.6419 68.113 64.7836 67.8836 64.8767C67.6542 64.9697 67.4073 65.0119 67.16 65.0002ZM68.16 48.1802C68.157 48.0571 68.1334 47.9354 68.09 47.8202C67.989 47.5871 67.8031 47.4012 67.57 47.3002C67.4548 47.2569 67.3331 47.2332 67.21 47.2302C67.0837 47.2332 66.9587 47.2568 66.84 47.3002C66.7267 47.3489 66.6246 47.4203 66.54 47.5102C66.4512 47.5994 66.3799 47.7045 66.33 47.8202C66.282 47.934 66.2581 48.0566 66.26 48.1802V62.1802H50.29C50.1633 62.1783 50.0374 62.2021 49.92 62.2502C49.8035 62.2938 49.6977 62.3619 49.6097 62.4498C49.5217 62.5378 49.4536 62.6436 49.41 62.7602C49.3628 62.8743 49.339 62.9967 49.34 63.1202C49.3382 63.247 49.362 63.3728 49.41 63.4902C49.458 63.6015 49.5258 63.7031 49.61 63.7902C49.7001 63.878 49.8051 63.9491 49.92 64.0002C50.0374 64.0482 50.1633 64.072 50.29 64.0702H67C67.1267 64.0705 67.2523 64.0467 67.37 64.0002C67.4865 63.9564 67.5922 63.8882 67.68 63.8002C67.7637 63.7088 67.8313 63.604 67.88 63.4902C67.9481 63.3705 67.9891 63.2374 68 63.1002V48.1802H68.16ZM67.16 19.3102C66.9101 19.3095 66.6625 19.262 66.43 19.1702C66.196 19.0803 65.9844 18.9404 65.81 18.7602C65.632 18.5841 65.4923 18.373 65.4 18.1402C65.2991 17.9104 65.2513 17.6609 65.26 17.4102V3.79017H50.26C50.0097 3.79393 49.7612 3.74628 49.53 3.65017C49.2947 3.56276 49.0826 3.42249 48.91 3.24017C48.7279 3.06543 48.5848 2.85414 48.49 2.62017C48.397 2.39184 48.3528 2.1466 48.36 1.90017C48.3528 1.65049 48.3971 1.402 48.49 1.17017C48.5848 0.936201 48.7279 0.724912 48.91 0.550169C49.074 0.371574 49.2755 0.231548 49.5 0.140169C49.7312 0.0440555 49.9797 -0.00359389 50.23 0.000169339H67C67.2575 -0.0119777 67.5147 0.028108 67.7563 0.118012C67.9979 0.207916 68.2187 0.345779 68.4056 0.523298C68.5924 0.700817 68.7414 0.914319 68.8436 1.15095C68.9458 1.38757 68.999 1.64243 69 1.90017V17.4102C69.0053 17.7873 68.8963 18.1572 68.6875 18.4713C68.4787 18.7854 68.1798 19.029 67.83 19.1702C67.5976 19.262 67.35 19.3095 67.1 19.3102H67.16ZM68.16 1.90017C68.1341 1.76672 68.0795 1.64048 68 1.53017C67.9513 1.41631 67.8837 1.31151 67.8 1.22017C67.7102 1.12982 67.6007 1.06138 67.48 1.02017C67.3563 0.986185 67.2267 0.979363 67.1 1.00017H50.23C50.1033 0.998307 49.9774 1.02212 49.86 1.07017C49.7436 1.11391 49.6379 1.18211 49.55 1.27017C49.4598 1.35627 49.3913 1.4625 49.35 1.58017C49.302 1.69752 49.2782 1.82338 49.28 1.95017C49.279 2.07365 49.3028 2.19608 49.35 2.31017C49.3913 2.42784 49.4598 2.53407 49.55 2.62017C49.6379 2.70823 49.7436 2.77643 49.86 2.82017C49.9774 2.86822 50.1033 2.89203 50.23 2.89017H66V17.4102C65.9982 17.537 66.022 17.6628 66.07 17.7802C66.121 17.8922 66.1922 17.9939 66.28 18.0802C66.3692 18.1691 66.4744 18.2403 66.59 18.2902C66.8217 18.3796 67.0784 18.3796 67.31 18.2902C67.4257 18.2403 67.5309 18.1691 67.62 18.0802C67.7079 17.9939 67.7791 17.8922 67.83 17.7802C67.8781 17.6628 67.9019 17.537 67.9 17.4102V1.90017H68.16ZM17.23 3.79017H3.92004V17.4102C3.92527 17.7873 3.81632 18.1572 3.60752 18.4713C3.39871 18.7854 3.09981 19.029 2.75004 19.1702C2.28077 19.3541 1.75932 19.3541 1.29004 19.1702C0.941089 19.0279 0.642955 18.784 0.434325 18.4701C0.225695 18.1563 0.116199 17.787 0.120044 17.4102V1.90017C0.0922604 1.65417 0.118223 1.40506 0.196139 1.17008C0.274055 0.935092 0.402065 0.719825 0.571323 0.539157C0.740581 0.358488 0.94705 0.216726 1.17646 0.123667C1.40587 0.0306075 1.65275 -0.011529 1.90004 0.000169339H17.23C17.4802 -0.00153976 17.7282 0.0461662 17.9599 0.14055C18.1916 0.234933 18.4023 0.374136 18.58 0.550169C18.7624 0.722733 18.9026 0.934847 18.99 1.17017C19.0862 1.40136 19.1338 1.64982 19.13 1.90017C19.1431 2.15267 19.1028 2.40508 19.0118 2.64097C18.9208 2.87685 18.7811 3.09092 18.6019 3.26923C18.4226 3.44754 18.2078 3.58608 17.9715 3.67584C17.7351 3.7656 17.4825 3.80455 17.23 3.79017ZM17.23 0.950169H1.90004C1.77788 0.941895 1.65533 0.958917 1.54004 1.00017C1.4211 1.03878 1.31425 1.10771 1.23004 1.20017C1.14604 1.29503 1.08231 1.40605 1.04276 1.52642C1.00321 1.64679 0.988676 1.77398 1.00004 1.90017V17.4102C0.998182 17.537 1.02199 17.6628 1.07004 17.7802C1.12109 17.8951 1.1922 18.0001 1.28004 18.0902C1.37008 18.1755 1.4752 18.2433 1.59004 18.2902C1.70388 18.3382 1.82649 18.3621 1.95004 18.3602C2.07684 18.362 2.20269 18.3382 2.32004 18.2902C2.43256 18.2389 2.537 18.1716 2.63004 18.0902C2.71811 18.0023 2.7863 17.8966 2.83004 17.7802C2.8781 17.6628 2.90191 17.537 2.90004 17.4102V2.84017H17.23C17.3536 2.84208 17.4762 2.81824 17.59 2.77017C17.709 2.73156 17.8158 2.66263 17.9 2.57017C17.9889 2.48098 18.0602 2.3758 18.11 2.26017C18.1573 2.14608 18.1811 2.02365 18.18 1.90017C18.3 1.30017 17.82 1.00017 17.23 1.00017V0.950169ZM1.90004 46.2802C2.14999 46.2808 2.3976 46.3283 2.63004 46.4202C2.86051 46.5169 3.07081 46.656 3.25004 46.8302C3.42813 47.0062 3.56774 47.2174 3.66004 47.4502C3.76096 47.6799 3.80881 47.9294 3.80004 48.1802V61.1802H17.23C17.4791 61.1789 17.7259 61.2268 17.9564 61.3212C18.1868 61.4155 18.3964 61.5546 18.5729 61.7302C18.7495 61.9058 18.8896 62.1146 18.9852 62.3446C19.0808 62.5745 19.13 62.8211 19.13 63.0702C19.1274 63.5733 18.9264 64.055 18.5706 64.4108C18.2149 64.7665 17.7331 64.9675 17.23 64.9702H1.90004C1.6497 64.9739 1.40124 64.9263 1.17004 64.8302C0.937239 64.7379 0.726121 64.5983 0.550044 64.4202C0.367727 64.2476 0.227458 64.0355 0.140044 63.8002C0.0478785 63.5783 0.0003069 63.3404 4.43482e-05 63.1002V48.1802C-0.00166475 47.93 0.0460412 47.682 0.140425 47.4503C0.234808 47.2187 0.374011 47.0079 0.550044 46.8302C0.731467 46.6587 0.941239 46.52 1.17004 46.4202C1.40249 46.3283 1.6501 46.2808 1.90004 46.2802ZM1.00004 63.1002C0.998038 63.2266 1.02183 63.3521 1.06998 63.469C1.11812 63.5859 1.1896 63.6918 1.28004 63.7802C1.36425 63.8726 1.4711 63.9416 1.59004 63.9802C1.70388 64.0282 1.82649 64.0521 1.95004 64.0502H17.23C17.3536 64.0521 17.4762 64.0282 17.59 63.9802C17.7057 63.9303 17.8109 63.8591 17.9 63.7702C17.9899 63.6856 18.0613 63.5835 18.11 63.4702C18.202 63.2355 18.202 62.9748 18.11 62.7402C18.059 62.6252 17.9879 62.5202 17.9 62.4302C17.8087 62.3465 17.7039 62.2789 17.59 62.2302C17.4762 62.1821 17.3536 62.1583 17.23 62.1602H3.00004V48.1602C3.00287 48.0365 2.97899 47.9137 2.93004 47.8002C2.88318 47.6853 2.81536 47.5802 2.73004 47.4902C2.63999 47.4023 2.53502 47.3312 2.42004 47.2802C2.28566 47.2318 2.14202 47.2147 2.00004 47.2302C1.87325 47.2283 1.74739 47.2521 1.63004 47.3002C1.51507 47.3512 1.4101 47.4223 1.32004 47.5102C1.23473 47.6002 1.16691 47.7053 1.12004 47.8202C1.0711 47.9337 1.04722 48.0565 1.05004 48.1802V63.1002H1.00004Z" fill="#BA00BA"/>
<path fill-rule="evenodd" clip-rule="evenodd" d="M53 29.6301V30.44V31C53.019 31.4226 52.9185 31.8419 52.71 32.21C51.54 44 43.64 56 34 56C24.36 56 16.47 44.26 15.29 32.18C15 31.88 15 31.6 15 31V29.6301H19.3028C18.718 30.0226 18.3548 30.4043 18.22 30.74V31.33C18.8 32.8 24.06 35.15 32.55 35.44V29.6301H35.46V35.44C44.52 35.15 49.5 32.8 50.08 31V30.74C49.9384 30.4043 49.5714 30.0226 48.9815 29.6301H53ZM52.3371 23.0801C50.1478 13.9166 42.7852 9 34 9C25.2148 9 17.8522 13.9166 15.6629 23.0801H18.9162C20.7603 16.8176 25.5989 12.6867 32.54 11.94V23.0801H35.46V12C42.3522 12.446 47.3748 16.6738 49.1392 23.0801H52.3371ZM32.54 38.38C27.28 38.08 22.02 37.21 18.8 35.44C20.85 44.26 26.41 51.89 32.54 53.07V38.38ZM35.46 38.37V53.06C41.6 51.89 47.45 44.54 49.2 35.43C45.99 37.2 40.72 38.37 35.46 38.37Z" fill="#EDB3F0"/>
<path d="M8.98047 28.5498H59.0205" stroke="#EDB3F0" stroke-width="3" stroke-miterlimit="10" stroke-linecap="round"/>
</g>
<defs>
<clipPath id="clip0_347_181">
<rect width="69" height="65" fill="white"/>
</clipPath>
</defs>
</svg>
