<svg width="69" height="65" viewBox="0 0 69 65" fill="none" xmlns="http://www.w3.org/2000/svg">
<path d="M53 30.4442V28.9752C53 16.0496 44.5245 9 34 9C23.4755 9 15 16.0496 15 28.9752V31.0347C15 31.6253 15 31.9131 15.2938 32.2084C16.4689 44.2555 24.3568 56 34 56C43.6432 56 51.5385 43.9529 52.7062 32.2084C53 31.6179 53 31.33 53 31.0347V30.4442ZM35.4615 35.4417V26.6278C44.5245 26.923 49.4894 29.2705 50.0769 30.7394V31.0347C49.4967 32.799 44.5245 35.1464 35.4615 35.4417ZM18.2242 31.33V30.7394C18.8118 29.2705 23.7766 26.923 32.5458 26.6278V35.4417C24.063 35.1464 18.8044 32.799 18.2242 31.33ZM49.7832 26.923C46.5663 25.1588 41.0139 23.9851 35.4615 23.9851V11.938C43.6506 12.5285 49.2029 18.4044 49.7832 26.923ZM32.5385 11.938V23.6898C26.9861 23.9851 21.4337 24.8635 18.2169 26.6278C19.0982 18.4044 24.3568 12.8164 32.5385 11.938ZM18.8044 35.4417C22.0213 37.2059 27.2799 38.0843 32.5385 38.3796V53.0694C26.4059 51.8883 20.8535 44.2555 18.8044 35.4417ZM35.4615 53.062V38.3722C40.7201 38.3722 45.9861 37.1985 49.1956 35.4343C47.4476 44.5434 41.6015 51.8883 35.4615 53.062Z" fill="#EDB3F0"/>
<path d="M67.1583 64.526H50.2871C49.4554 64.526 48.8613 63.9338 48.8613 63.1046C48.8613 62.2755 49.5742 61.6832 50.2871 61.6832H65.6137V48.1799C65.6137 47.3507 66.3266 46.7585 67.0395 46.7585C67.8711 46.7585 68.4652 47.3507 68.4652 48.1799V63.1046C68.584 63.9338 67.9899 64.526 67.1583 64.526ZM67.0989 18.8338C66.2672 18.8338 65.6731 18.2415 65.6731 17.4124V3.31677H50.2276C49.396 3.31677 48.8019 2.72452 48.8019 1.89537C48.8019 1.06622 49.5148 0.473963 50.2276 0.473963H66.98C67.8117 0.473963 68.4058 1.06622 68.4058 1.89537V17.4124C68.5246 18.2415 67.9305 18.8338 67.0989 18.8338ZM17.2278 3.31677H3.44569V17.4124C3.44569 18.2415 2.73282 18.8338 2.01995 18.8338C1.18828 18.8338 0.594219 18.2415 0.594219 17.4124V1.89537C0.594219 1.06622 1.30709 0.473963 2.01995 0.473963H17.3466C18.1783 0.473963 18.7724 1.06622 18.7724 1.89537C18.7724 2.72452 18.0595 3.31677 17.2278 3.31677ZM1.90114 46.64C2.73282 46.64 3.32688 47.2323 3.32688 48.0614V61.5648H17.2278C18.0595 61.5648 18.6535 62.157 18.6535 62.9862C18.6535 63.8153 17.9407 64.4076 17.2278 64.4076H1.90114C1.06946 64.4076 0.475407 63.8153 0.475407 62.9862V48.1799C0.475407 47.3507 1.06946 46.64 1.90114 46.64ZM67.1583 64.9998H50.2871C49.7829 64.9998 49.2994 64.8002 48.9429 64.4447C48.5864 64.0893 48.3861 63.6073 48.3861 63.1046C48.3861 62.602 48.5864 62.1199 48.9429 61.7645C49.2994 61.4091 49.7829 61.2094 50.2871 61.2094H65.1385V48.1799C65.1385 47.6772 65.3388 47.1952 65.6953 46.8398C66.0518 46.4843 66.5353 46.2847 67.0395 46.2847C67.5436 46.2847 68.0271 46.4843 68.3837 46.8398C68.7402 47.1952 68.9404 47.6772 68.9404 48.1799V63.1046C69.0592 64.1707 68.2276 64.9998 67.1583 64.9998ZM68.1087 48.1799C68.1088 48.0554 68.0842 47.9322 68.0365 47.8172C67.9887 47.7022 67.9187 47.5977 67.8304 47.5097C67.7422 47.4216 67.6374 47.3518 67.522 47.3042C67.4067 47.2565 67.2831 47.232 67.1583 47.232C67.0334 47.232 66.9098 47.2565 66.7945 47.3042C66.6791 47.3518 66.5743 47.4216 66.4861 47.5097C66.3978 47.5977 66.3278 47.7022 66.2801 47.8172C66.2323 47.9322 66.2077 48.0554 66.2078 48.1799V62.157H50.2871C50.1622 62.157 50.0386 62.1815 49.9232 62.2291C49.8079 62.2767 49.7031 62.3465 49.6148 62.4345C49.5265 62.5225 49.4565 62.627 49.4087 62.7419C49.3609 62.8569 49.3363 62.9802 49.3363 63.1046C49.3363 63.2291 49.3609 63.3523 49.4087 63.4673C49.4565 63.5823 49.5265 63.6868 49.6148 63.7748C49.7031 63.8628 49.8079 63.9326 49.9232 63.9802C50.0386 64.0278 50.1622 64.0523 50.2871 64.0522H67.0395C67.1648 64.054 67.2892 64.0307 67.4053 63.9838C67.5214 63.9368 67.6269 63.867 67.7156 63.7787C67.8042 63.6903 67.8741 63.5852 67.9213 63.4694C67.9684 63.3536 67.9917 63.2296 67.9899 63.1046V48.1799H68.1087ZM67.0989 19.3076C66.8483 19.3109 66.5996 19.2641 66.3675 19.17C66.1354 19.0759 65.9245 18.9365 65.7473 18.7598C65.5701 18.5832 65.4302 18.3729 65.3359 18.1415C65.2415 17.9101 65.1946 17.6622 65.1979 17.4124V3.79058H50.2276C49.9771 3.79386 49.7284 3.74708 49.4963 3.653C49.2642 3.55892 49.0533 3.41944 48.8761 3.2428C48.6989 3.06615 48.559 2.85592 48.4647 2.6245C48.3703 2.39308 48.3234 2.14516 48.3267 1.89537C48.3234 1.64558 48.3703 1.39766 48.4647 1.16624C48.559 0.934817 48.6989 0.724582 48.8761 0.547938C49.0533 0.371293 49.2642 0.231816 49.4963 0.137736C49.7284 0.0436559 49.9771 -0.00312223 50.2276 0.000161656H66.98C68.1682 0.000161656 68.9998 0.829315 68.9998 1.89537V17.4124C69.0031 17.6622 68.9562 17.9101 68.8618 18.1415C68.7675 18.3729 68.6276 18.5832 68.4504 18.7598C68.2732 18.9365 68.0623 19.0759 67.8302 19.17C67.5981 19.2641 67.3494 19.3109 67.0989 19.3076ZM68.0493 1.89537C68.0511 1.77043 68.0278 1.6464 67.9807 1.53062C67.9335 1.41484 67.8636 1.30967 67.775 1.22131C67.6863 1.13296 67.5808 1.06323 67.4647 1.01624C67.3486 0.969254 67.2242 0.94597 67.0989 0.947765H50.2276C50.1023 0.94597 49.9779 0.969254 49.8618 1.01624C49.7457 1.06323 49.6402 1.13296 49.5515 1.22131C49.4629 1.30967 49.393 1.41484 49.3458 1.53062C49.2987 1.6464 49.2754 1.77043 49.2772 1.89537C49.2754 2.02031 49.2987 2.14433 49.3458 2.26011C49.393 2.37589 49.4629 2.48107 49.5515 2.56942C49.6402 2.65778 49.7457 2.72751 49.8618 2.7745C49.9779 2.82148 50.1023 2.84477 50.2276 2.84297H66.0296V17.4124C66.0295 17.5368 66.0541 17.6601 66.1018 17.7751C66.1496 17.8901 66.2196 17.9946 66.3079 18.0826C66.3961 18.1706 66.5009 18.2404 66.6162 18.2881C66.7316 18.3357 66.8552 18.3602 66.98 18.3602C67.1049 18.3602 67.2285 18.3357 67.3438 18.2881C67.4592 18.2404 67.564 18.1706 67.6522 18.0826C67.7405 17.9946 67.8105 17.8901 67.8583 17.7751C67.906 17.6601 67.9306 17.5368 67.9305 17.4124V1.89537H68.0493ZM17.2278 3.79058H3.92094V17.4124C3.92423 17.6622 3.87731 17.9101 3.78294 18.1415C3.68858 18.3729 3.54867 18.5832 3.37149 18.7598C3.19431 18.9365 2.98343 19.0759 2.75131 19.17C2.51918 19.2641 2.27051 19.3109 2.01995 19.3076C1.7694 19.3109 1.52073 19.2641 1.2886 19.17C1.05648 19.0759 0.845601 18.9365 0.668419 18.7598C0.491236 18.5832 0.351334 18.3729 0.256967 18.1415C0.1626 17.9101 0.11568 17.6622 0.118973 17.4124V1.89537C0.000162146 0.829315 0.831841 0.000161656 1.90114 0.000161656H17.2278C17.4784 -0.00312223 17.727 0.0436559 17.9592 0.137736C18.1913 0.231816 18.4022 0.371293 18.5793 0.547938C18.7565 0.724582 18.8964 0.934817 18.9908 1.16624C19.0852 1.39766 19.1321 1.64558 19.1288 1.89537C19.2476 2.96142 18.2971 3.79058 17.2278 3.79058ZM17.2278 0.947765H1.90114C1.77583 0.94597 1.65142 0.969254 1.53529 1.01624C1.41915 1.06323 1.31366 1.13296 1.22503 1.22131C1.13641 1.30967 1.06647 1.41484 1.01934 1.53062C0.972207 1.6464 0.948852 1.77043 0.950653 1.89537V17.4124C0.948852 17.5373 0.972207 17.6613 1.01934 17.7771C1.06647 17.8929 1.13641 17.9981 1.22503 18.0864C1.31366 18.1748 1.41915 18.2445 1.53529 18.2915C1.65142 18.3385 1.77583 18.3618 1.90114 18.36C2.02646 18.3618 2.15087 18.3385 2.267 18.2915C2.38313 18.2445 2.48863 18.1748 2.57725 18.0864C2.66588 17.9981 2.73582 17.8929 2.78295 17.7771C2.83008 17.6613 2.85343 17.5373 2.85163 17.4124V2.84297H17.2278C17.3531 2.84477 17.4775 2.82148 17.5937 2.7745C17.7098 2.72751 17.8153 2.65778 17.9039 2.56942C17.9925 2.48107 18.0625 2.37589 18.1096 2.26011C18.1567 2.14433 18.1801 2.02031 18.1783 1.89537C18.2971 1.30312 17.8219 0.947765 17.2278 0.947765ZM1.90114 46.2847C2.1517 46.2814 2.40037 46.3282 2.6325 46.4222C2.86462 46.5163 3.0755 46.6558 3.25268 46.8324C3.42986 47.0091 3.56976 47.2193 3.66413 47.4507C3.7585 47.6822 3.80542 47.9301 3.80212 48.1799V61.2094H17.2278C17.732 61.2094 18.2155 61.4091 18.572 61.7645C18.9285 62.1199 19.1288 62.602 19.1288 63.1046C19.1288 63.6073 18.9285 64.0893 18.572 64.4447C18.2155 64.8002 17.732 64.9998 17.2278 64.9998H1.90114C1.65059 65.0031 1.40192 64.9563 1.16979 64.8623C0.937665 64.7682 0.72679 64.6287 0.549607 64.4521C0.372424 64.2754 0.232523 64.0652 0.138156 63.8338C0.0437889 63.6023 -0.00313174 63.3544 0.000162148 63.1046V48.1799C-0.00313174 47.9301 0.0437889 47.6822 0.138156 47.4507C0.232523 47.2193 0.372424 47.0091 0.549607 46.8324C0.72679 46.6558 0.937665 46.5163 1.16979 46.4222C1.40192 46.3282 1.65059 46.2814 1.90114 46.2847ZM0.950653 63.1046C0.948852 63.2296 0.972207 63.3536 1.01934 63.4694C1.06647 63.5852 1.13641 63.6903 1.22503 63.7787C1.31366 63.867 1.41915 63.9368 1.53529 63.9838C1.65142 64.0307 1.77583 64.054 1.90114 64.0522H17.2278C17.3526 64.0523 17.4763 64.0278 17.5916 63.9802C17.707 63.9326 17.8118 63.8628 17.9001 63.7748C17.9883 63.6868 18.0584 63.5823 18.1062 63.4673C18.1539 63.3523 18.1785 63.2291 18.1785 63.1046C18.1785 62.9802 18.1539 62.8569 18.1062 62.7419C18.0584 62.627 17.9883 62.5225 17.9001 62.4345C17.8118 62.3465 17.707 62.2767 17.5916 62.2291C17.4763 62.1815 17.3526 62.157 17.2278 62.157H2.97045V48.1799C2.97225 48.0549 2.94889 47.9309 2.90176 47.8151C2.85463 47.6994 2.78469 47.5942 2.69606 47.5058C2.60744 47.4175 2.50194 47.3477 2.38581 47.3007C2.26968 47.2538 2.14527 47.2305 2.01995 47.2323C1.89464 47.2305 1.77023 47.2538 1.6541 47.3007C1.53797 47.3477 1.43247 47.4175 1.34384 47.5058C1.25522 47.5942 1.18528 47.6994 1.13815 47.8151C1.09102 47.9309 1.06766 48.0549 1.06946 48.1799V63.1046H0.950653Z" fill="#BA00BA"/>
</svg>
